<mxfile host="app.diagrams.net" modified="2020-12-14T22:49:45.235Z" agent="5.0 (Windows NT 6.1; Win64; x64) AppleWebKit/537.36 (KHTML, like Gecko) Chrome/87.0.4280.88 Safari/537.36" etag="Jlh5fZK1MQhcRhNtFNbg" version="14.0.1" type="github" pages="3">
  <diagram id="gZazI32-_r7yNai_TiXA" name="InicioSesión">
    <mxGraphModel dx="1574" dy="877" grid="1" gridSize="10" guides="1" tooltips="1" connect="1" arrows="1" fold="1" page="1" pageScale="1" pageWidth="1100" pageHeight="850" math="0" shadow="0">
      <root>
        <mxCell id="eNDcIVJdkdcB6iGMuQcK-0" />
        <mxCell id="eNDcIVJdkdcB6iGMuQcK-1" parent="eNDcIVJdkdcB6iGMuQcK-0" />
        <mxCell id="DjGk33oSGp7Z6PzVpq7a-0" value="" style="whiteSpace=wrap;html=1;rounded=0;shadow=0;labelBackgroundColor=none;strokeColor=#000000;strokeWidth=1;fillColor=none;fontFamily=Verdana;fontSize=12;fontColor=#000000;align=center;comic=1;" parent="eNDcIVJdkdcB6iGMuQcK-1" vertex="1">
          <mxGeometry x="20" y="20" width="1060" height="810" as="geometry" />
        </mxCell>
        <mxCell id="DjGk33oSGp7Z6PzVpq7a-1" value="BLOG++" style="whiteSpace=wrap;html=1;rounded=0;shadow=0;labelBackgroundColor=none;strokeWidth=1;fontFamily=Verdana;fontSize=28;align=center;comic=1;" parent="eNDcIVJdkdcB6iGMuQcK-1" vertex="1">
          <mxGeometry x="445" y="123" width="190" height="50" as="geometry" />
        </mxCell>
        <mxCell id="DjGk33oSGp7Z6PzVpq7a-2" value="&lt;font style=&quot;font-size: 24px&quot;&gt;El blog de los programadores&lt;/font&gt;" style="text;html=1;points=[];align=center;verticalAlign=top;spacingTop=-4;fontSize=14;fontFamily=Verdana" parent="eNDcIVJdkdcB6iGMuQcK-1" vertex="1">
          <mxGeometry x="330" y="210" width="410" height="20" as="geometry" />
        </mxCell>
        <mxCell id="DjGk33oSGp7Z6PzVpq7a-4" value="&lt;font style=&quot;font-size: 18px&quot;&gt;Usuario:&lt;/font&gt;" style="text;html=1;points=[];align=left;verticalAlign=top;spacingTop=-4;fontSize=14;fontFamily=Verdana" parent="eNDcIVJdkdcB6iGMuQcK-1" vertex="1">
          <mxGeometry x="354" y="390" width="170" height="20" as="geometry" />
        </mxCell>
        <mxCell id="DjGk33oSGp7Z6PzVpq7a-5" value="&lt;font style=&quot;font-size: 18px&quot;&gt;Contraseña:&lt;/font&gt;" style="text;html=1;points=[];align=left;verticalAlign=top;spacingTop=-4;fontSize=14;fontFamily=Verdana" parent="eNDcIVJdkdcB6iGMuQcK-1" vertex="1">
          <mxGeometry x="319" y="425" width="170" height="20" as="geometry" />
        </mxCell>
        <mxCell id="DjGk33oSGp7Z6PzVpq7a-8" value="&lt;font style=&quot;font-size: 18px&quot;&gt;Inicie sesión&lt;/font&gt;" style="text;html=1;resizable=0;autosize=1;align=center;verticalAlign=middle;points=[];fillColor=none;strokeColor=none;rounded=0;" parent="eNDcIVJdkdcB6iGMuQcK-1" vertex="1">
          <mxGeometry x="480" y="326" width="110" height="20" as="geometry" />
        </mxCell>
        <mxCell id="DjGk33oSGp7Z6PzVpq7a-9" value="" style="rounded=0;whiteSpace=wrap;html=1;" parent="eNDcIVJdkdcB6iGMuQcK-1" vertex="1">
          <mxGeometry x="440" y="389" width="310" height="30" as="geometry" />
        </mxCell>
        <mxCell id="DjGk33oSGp7Z6PzVpq7a-10" value="" style="rounded=0;whiteSpace=wrap;html=1;" parent="eNDcIVJdkdcB6iGMuQcK-1" vertex="1">
          <mxGeometry x="440" y="425" width="310" height="30" as="geometry" />
        </mxCell>
        <mxCell id="DjGk33oSGp7Z6PzVpq7a-12" value="&lt;font style=&quot;font-size: 14px&quot;&gt;¿No está registrado?&lt;/font&gt;" style="text;html=1;resizable=0;autosize=1;align=center;verticalAlign=middle;points=[];fillColor=none;strokeColor=none;rounded=0;" parent="eNDcIVJdkdcB6iGMuQcK-1" vertex="1">
          <mxGeometry x="417" y="567" width="150" height="20" as="geometry" />
        </mxCell>
        <mxCell id="DjGk33oSGp7Z6PzVpq7a-13" value="&lt;u&gt;&lt;font style=&quot;font-size: 18px&quot;&gt;Regístrese&lt;/font&gt;&lt;/u&gt;" style="text;html=1;resizable=0;autosize=1;align=center;verticalAlign=middle;points=[];fillColor=none;strokeColor=none;rounded=0;fontSize=16;" parent="eNDcIVJdkdcB6iGMuQcK-1" vertex="1">
          <mxGeometry x="563" y="567" width="100" height="20" as="geometry" />
        </mxCell>
        <mxCell id="S-zXeEQk9q2V4eFc6yOE-0" value="&lt;font style=&quot;font-size: 14px&quot;&gt;¿Olvidó su contraseña?&lt;/font&gt;" style="text;html=1;resizable=0;autosize=1;align=center;verticalAlign=middle;points=[];fillColor=none;strokeColor=none;rounded=0;" parent="eNDcIVJdkdcB6iGMuQcK-1" vertex="1">
          <mxGeometry x="432" y="530" width="160" height="20" as="geometry" />
        </mxCell>
        <mxCell id="lbXYh9BWL5XQjY3uV1RV-0" value="&lt;u&gt;&lt;font style=&quot;font-size: 14px&quot;&gt;Clic aquí&lt;/font&gt;&lt;/u&gt;" style="text;html=1;resizable=0;autosize=1;align=center;verticalAlign=middle;points=[];fillColor=none;strokeColor=none;rounded=0;fontSize=16;" parent="eNDcIVJdkdcB6iGMuQcK-1" vertex="1">
          <mxGeometry x="581" y="525" width="70" height="30" as="geometry" />
        </mxCell>
        <mxCell id="gFPA7t__YD5hjKUTPgTM-0" value="&lt;font style=&quot;background-color: rgb(204 , 204 , 204) ; font-size: 16px&quot; color=&quot;#000000&quot;&gt;Ingresar&lt;/font&gt;" style="rounded=1;align=center;strokeColor=none;html=1;fontColor=#ffffff;fontSize=12;fillColor=#CCCCCC;" vertex="1" parent="eNDcIVJdkdcB6iGMuQcK-1">
          <mxGeometry x="495" y="480" width="80" height="33" as="geometry" />
        </mxCell>
      </root>
    </mxGraphModel>
  </diagram>
  <diagram name="Registro" id="03018318-947c-dd8e-b7a3-06fadd420f32">
    <mxGraphModel dx="1574" dy="877" grid="1" gridSize="10" guides="1" tooltips="1" connect="1" arrows="1" fold="1" page="1" pageScale="1" pageWidth="1100" pageHeight="850" background="#ffffff" math="0" shadow="0">
      <root>
        <mxCell id="0" />
        <mxCell id="1" parent="0" />
        <mxCell id="677b7b8949515195-1" value="" style="whiteSpace=wrap;html=1;rounded=0;shadow=0;labelBackgroundColor=none;strokeColor=#000000;strokeWidth=1;fillColor=none;fontFamily=Verdana;fontSize=12;fontColor=#000000;align=center;comic=1;" parent="1" vertex="1">
          <mxGeometry x="20" y="20" width="1060" height="810" as="geometry" />
        </mxCell>
        <mxCell id="677b7b8949515195-2" value="BLOG++" style="whiteSpace=wrap;html=1;rounded=0;shadow=0;labelBackgroundColor=none;strokeWidth=1;fontFamily=Verdana;fontSize=28;align=center;comic=1;" parent="1" vertex="1">
          <mxGeometry x="445" y="123" width="190" height="50" as="geometry" />
        </mxCell>
        <mxCell id="677b7b8949515195-11" value="&lt;font style=&quot;font-size: 24px&quot;&gt;El blog de los programadores&lt;/font&gt;" style="text;html=1;points=[];align=center;verticalAlign=top;spacingTop=-4;fontSize=14;fontFamily=Verdana" parent="1" vertex="1">
          <mxGeometry x="330" y="210" width="410" height="20" as="geometry" />
        </mxCell>
        <mxCell id="677b7b8949515195-44" value="&lt;font style=&quot;font-size: 18px&quot;&gt;E-mail:&lt;/font&gt;" style="text;html=1;points=[];align=left;verticalAlign=top;spacingTop=-4;fontSize=14;fontFamily=Verdana" parent="1" vertex="1">
          <mxGeometry x="365" y="355" width="170" height="20" as="geometry" />
        </mxCell>
        <mxCell id="677b7b8949515195-45" value="&lt;font style=&quot;font-size: 18px&quot;&gt;Usuario:&lt;/font&gt;" style="text;html=1;points=[];align=left;verticalAlign=top;spacingTop=-4;fontSize=14;fontFamily=Verdana" parent="1" vertex="1">
          <mxGeometry x="354" y="390" width="170" height="20" as="geometry" />
        </mxCell>
        <mxCell id="677b7b8949515195-46" value="&lt;font style=&quot;font-size: 18px&quot;&gt;Contraseña:&lt;/font&gt;" style="text;html=1;points=[];align=left;verticalAlign=top;spacingTop=-4;fontSize=14;fontFamily=Verdana" parent="1" vertex="1">
          <mxGeometry x="319" y="425" width="170" height="20" as="geometry" />
        </mxCell>
        <mxCell id="677b7b8949515195-47" value="&lt;font style=&quot;font-size: 18px&quot;&gt;Confirme contraseña:&lt;/font&gt;" style="text;html=1;points=[];align=left;verticalAlign=top;spacingTop=-4;fontSize=14;fontFamily=Verdana" parent="1" vertex="1">
          <mxGeometry x="234" y="460" width="170" height="20" as="geometry" />
        </mxCell>
        <mxCell id="ds7tZrgiNDkBfcN-C1O5-2" value="" style="rounded=0;whiteSpace=wrap;html=1;" parent="1" vertex="1">
          <mxGeometry x="440" y="350" width="310" height="30" as="geometry" />
        </mxCell>
        <mxCell id="ds7tZrgiNDkBfcN-C1O5-3" value="&lt;font style=&quot;font-size: 18px&quot;&gt;Regístrese&lt;/font&gt;" style="text;html=1;resizable=0;autosize=1;align=center;verticalAlign=middle;points=[];fillColor=none;strokeColor=none;rounded=0;" parent="1" vertex="1">
          <mxGeometry x="485" y="300" width="100" height="20" as="geometry" />
        </mxCell>
        <mxCell id="ds7tZrgiNDkBfcN-C1O5-4" value="" style="rounded=0;whiteSpace=wrap;html=1;" parent="1" vertex="1">
          <mxGeometry x="440" y="389" width="310" height="30" as="geometry" />
        </mxCell>
        <mxCell id="ds7tZrgiNDkBfcN-C1O5-5" value="" style="rounded=0;whiteSpace=wrap;html=1;" parent="1" vertex="1">
          <mxGeometry x="440" y="425" width="310" height="30" as="geometry" />
        </mxCell>
        <mxCell id="ds7tZrgiNDkBfcN-C1O5-6" value="" style="rounded=0;whiteSpace=wrap;html=1;" parent="1" vertex="1">
          <mxGeometry x="440" y="464" width="310" height="30" as="geometry" />
        </mxCell>
        <mxCell id="lKXviaeM4Py1atNObUu9-1" value="&lt;font style=&quot;background-color: rgb(204 , 204 , 204) ; font-size: 16px&quot; color=&quot;#000000&quot;&gt;Ingresar&lt;/font&gt;" style="rounded=1;align=center;strokeColor=none;html=1;fontColor=#ffffff;fontSize=12;fillColor=#CCCCCC;" vertex="1" parent="1">
          <mxGeometry x="510" y="520" width="80" height="33" as="geometry" />
        </mxCell>
      </root>
    </mxGraphModel>
  </diagram>
  <diagram name="RecuperarContraseña" id="OHRpuCTkjFCijbMchLx8">
    <mxGraphModel dx="1574" dy="877" grid="1" gridSize="10" guides="1" tooltips="1" connect="1" arrows="1" fold="1" page="1" pageScale="1" pageWidth="1100" pageHeight="850" math="0" shadow="0">
      <root>
        <mxCell id="_ADXCdrb54RnsIsi59sf-0" />
        <mxCell id="_ADXCdrb54RnsIsi59sf-1" parent="_ADXCdrb54RnsIsi59sf-0" />
        <mxCell id="_ADXCdrb54RnsIsi59sf-2" value="" style="whiteSpace=wrap;html=1;rounded=0;shadow=0;labelBackgroundColor=none;strokeColor=#000000;strokeWidth=1;fillColor=none;fontFamily=Verdana;fontSize=12;fontColor=#000000;align=center;comic=1;" parent="_ADXCdrb54RnsIsi59sf-1" vertex="1">
          <mxGeometry x="20" y="20" width="1060" height="810" as="geometry" />
        </mxCell>
        <mxCell id="_ADXCdrb54RnsIsi59sf-3" value="BLOG++" style="whiteSpace=wrap;html=1;rounded=0;shadow=0;labelBackgroundColor=none;strokeWidth=1;fontFamily=Verdana;fontSize=28;align=center;comic=1;" parent="_ADXCdrb54RnsIsi59sf-1" vertex="1">
          <mxGeometry x="445" y="123" width="190" height="50" as="geometry" />
        </mxCell>
        <mxCell id="_ADXCdrb54RnsIsi59sf-4" value="&lt;font style=&quot;font-size: 24px&quot;&gt;El blog de los programadores&lt;/font&gt;" style="text;html=1;points=[];align=center;verticalAlign=top;spacingTop=-4;fontSize=14;fontFamily=Verdana" parent="_ADXCdrb54RnsIsi59sf-1" vertex="1">
          <mxGeometry x="330" y="210" width="410" height="20" as="geometry" />
        </mxCell>
        <mxCell id="_ADXCdrb54RnsIsi59sf-5" value="&lt;font style=&quot;font-size: 18px&quot;&gt;E-mail:&lt;/font&gt;" style="text;html=1;points=[];align=left;verticalAlign=top;spacingTop=-4;fontSize=14;fontFamily=Verdana" parent="_ADXCdrb54RnsIsi59sf-1" vertex="1">
          <mxGeometry x="349" y="390" width="170" height="20" as="geometry" />
        </mxCell>
        <mxCell id="_ADXCdrb54RnsIsi59sf-7" value="&lt;font style=&quot;font-size: 18px&quot;&gt;Recuperar contraseña&lt;/font&gt;" style="text;html=1;resizable=0;autosize=1;align=center;verticalAlign=middle;points=[];fillColor=none;strokeColor=none;rounded=0;" parent="_ADXCdrb54RnsIsi59sf-1" vertex="1">
          <mxGeometry x="440" y="326" width="190" height="20" as="geometry" />
        </mxCell>
        <mxCell id="_ADXCdrb54RnsIsi59sf-8" value="" style="rounded=0;whiteSpace=wrap;html=1;" parent="_ADXCdrb54RnsIsi59sf-1" vertex="1">
          <mxGeometry x="426" y="389" width="310" height="30" as="geometry" />
        </mxCell>
        <mxCell id="4MEGMghlVrwWeVLGjvu5-0" value="&lt;font style=&quot;background-color: rgb(204 , 204 , 204) ; font-size: 16px&quot; color=&quot;#000000&quot;&gt;Recuperar contraseña&lt;/font&gt;" style="rounded=1;align=center;strokeColor=none;html=1;fontColor=#ffffff;fontSize=12;fillColor=#CCCCCC;" vertex="1" parent="_ADXCdrb54RnsIsi59sf-1">
          <mxGeometry x="446.25" y="460" width="177.5" height="33" as="geometry" />
        </mxCell>
      </root>
    </mxGraphModel>
  </diagram>
</mxfile>
